<svg xmlns="http://www.w3.org/2000/svg" width="512" height="512" viewBox="0 0 512 512"><defs><linearGradient id="bg" x1="0" y1="0" x2="0" y2="1"><stop offset="0" stop-color="#8ccc62"/><stop offset="1" stop-color="#4f9437"/></linearGradient></defs><rect width="512" height="512" rx="112" fill="url(#bg)"/><ellipse cx="256" cy="400" rx="200" ry="62" fill="#4aa3df" stroke="#2b2233" stroke-width="8"/><ellipse cx="256" cy="408" rx="160" ry="36" fill="#6cc0f0"/><svg x="56" y="40" width="400" height="400" viewBox="0 0 200 200"><defs><linearGradient id="body" x1="0" y1="0" x2="0" y2="1"><stop offset="0" stop-color="#86a3c7"/><stop offset="1" stop-color="#5a7399"/></linearGradient><linearGradient id="head" x1="0" y1="0" x2="0" y2="1"><stop offset="0" stop-color="#6583aa"/><stop offset="1" stop-color="#4a6286"/></linearGradient></defs><path d="M86 164 L76 190 Q88 185 100 190 L96 164 Z" fill="#c9773a" stroke="#2b2233" stroke-width="4" stroke-linejoin="round" stroke-linecap="round"/><path d="M118 164 L110 190 Q122 185 134 190 L128 164 Z" fill="#c9773a" stroke="#2b2233" stroke-width="4" stroke-linejoin="round" stroke-linecap="round"/><path d="M56 114 C36 104 26 86 30 68 C44 82 60 90 78 94 Z" fill="#86a3c7" stroke="#2b2233" stroke-width="5" stroke-linejoin="round" stroke-linecap="round"/><path d="M124 100 C122 80 126 64 136 56 L164 62 C162 78 158 92 152 104 Z" fill="#4a6286" stroke="#2b2233" stroke-width="5" stroke-linejoin="round" stroke-linecap="round"/><path d="M40 124 C40 90 76 76 116 82 C150 88 170 108 164 136 C158 164 128 174 98 172 C62 170 40 154 40 124 Z" fill="url(#body)" stroke="#2b2233" stroke-width="5" stroke-linejoin="round" stroke-linecap="round"/><path d="M140 98 C158 104 166 122 160 142 C148 132 138 118 134 102 Z" fill="#ffffff"/><path d="M64 116 C76 96 112 94 132 106 C140 116 130 140 104 144 C84 146 66 136 64 116 Z" fill="#5f7aa0" stroke="#2b2233" stroke-width="4" stroke-linejoin="round" stroke-linecap="round"/><path d="M80 128 Q100 134 120 124 M88 137 Q104 140 122 132" fill="none" stroke="#46597a" stroke-width="3" stroke-linecap="round"/><circle cx="146" cy="54" r="28" fill="url(#head)" stroke="#2b2233" stroke-width="5" stroke-linejoin="round" stroke-linecap="round"/><ellipse cx="158" cy="64" rx="7" ry="4" fill="#ff8fa3" opacity="0.35"/><path d="M166 52 C182 49 197 53 197 61 C197 69 184 72 168 68 Z" fill="#56656f" stroke="#2b2233" stroke-width="5" stroke-linejoin="round" stroke-linecap="round"/><ellipse cx="181" cy="56" rx="3" ry="1.6" fill="#2b2233" opacity="0.5"/><circle cx="153" cy="47" r="6.5" fill="#161219"/><circle cx="155.5" cy="44.5" r="2.2" fill="#ffffff"/></svg></svg>